<svg xmlns="http://www.w3.org/2000/svg" width="46" height="53" viewBox="0 0 46 53">
  <g fill="none" fill-rule="evenodd" transform="translate(.75)">
    <path fill="#FFF" d="M22.75,12 C30.7581289,12 37.25,18.4918711 37.25,26.5 L37.25,44 L37.25,44 L8.25,44 L8.25,26.5 C8.25,18.4918711 14.7418711,12 22.75,12 Z"/>
    <path fill="#000" fill-rule="nonzero" d="M22.25,11 C13.2753728,11 6,18.2753728 6,27.25 L6,42.25 C6,44.5972102 7.90278981,46.5 10.25,46.5 L34.25,46.5 C36.5972102,46.5 38.5,44.5972102 38.5,42.25 L38.5,27.25 C38.5,18.2753728 31.2246272,11 22.25,11 Z M22.25,13.5 C29.8439153,13.5 36,19.6560847 36,27.25 L36,42.25 C36,43.2164983 35.2164983,44 34.25,44 L10.25,44 C9.28350169,44 8.5,43.2164983 8.5,42.25 L8.5,27.25 C8.5,19.6560847 14.6560847,13.5 22.25,13.5 Z"/>
    <path fill="#000" d="M22.5,30 C24.8472102,30 26.75,31.9027898 26.75,34.25 L26.75,42.75 C26.75,43.4403559 26.1903559,44 25.5,44 L19.5,44 C18.8096441,44 18.25,43.4403559 18.25,42.75 L18.25,34.25 C18.25,31.9027898 20.1527898,30 22.5,30 Z"/>
    <rect width="42" height="7" x="1.25" y="44" fill="#FFF"/>
    <rect width="9" height="2.5" x="17.75" y="4" fill="#000" rx="1.25"/>
    <rect width="2.5" height="12" x="21" fill="#000" rx="1.25"/>
    <path fill="#000" fill-rule="nonzero" d="M41.25,42.75 L3.25,42.75 C1.45507456,42.75 0,44.2050746 0,46 L0,49.25 C0,51.0449254 1.45507456,52.5 3.25,52.5 L41.25,52.5 C43.0449254,52.5 44.5,51.0449254 44.5,49.25 L44.5,46 C44.5,44.2050746 43.0449254,42.75 41.25,42.75 Z M3.25,45.25 L41.25,45.25 C41.6642136,45.25 42,45.5857864 42,46 L42,49.25 C42,49.6642136 41.6642136,50 41.25,50 L3.25,50 C2.83578644,50 2.5,49.6642136 2.5,49.25 L2.5,46 C2.5,45.5857864 2.83578644,45.25 3.25,45.25 Z"/>
  </g>
</svg>
