<svg xmlns="http://www.w3.org/2000/svg" width="40" height="53" viewBox="0 0 40 53">
  <g fill="none" fill-rule="evenodd" transform="translate(.75 .75)">
    <rect width="35" height="39" x="2.25" y="2.25" fill="#FFF"/>
    <path fill="#000" fill-rule="nonzero" d="M34.25,0 L7.25,0 C3.24593556,0 0,3.24593556 0,7.25 L0,45.5 C0,48.3994949 2.35050506,50.75 5.25,50.75 L34.25,50.75 C36.5972102,50.75 38.5,48.8472102 38.5,46.5 L38.5,4.25 C38.5,1.90278981 36.5972102,0 34.25,0 Z M7.25,2.5 L34.25,2.5 C35.2164983,2.5 36,3.28350169 36,4.25 L36,46.5 C36,47.4664983 35.2164983,48.25 34.25,48.25 L5.25,48.25 C3.73121694,48.25 2.5,47.0187831 2.5,45.5 L2.5,7.25 C2.5,4.62664744 4.62664744,2.5 7.25,2.5 Z"/>
    <rect width="35" height="8" x="2.25" y="41.25" fill="#FFF"/>
    <path fill="#000" fill-rule="nonzero" d="M38.5,47.5 L38.5,39.75 L6,39.75 C2.6862915,39.75 0,42.4362915 0,45.75 C0,49.0637085 2.6862915,51.75 6,51.75 L34.25,51.75 C36.5972102,51.75 38.5,49.8472102 38.5,47.5 Z M6,42.25 L36,42.25 L36,47.5 C36,48.4664983 35.2164983,49.25 34.25,49.25 L6,49.25 C4.06700338,49.25 2.5,47.6829966 2.5,45.75 C2.5,43.8170034 4.06700338,42.25 6,42.25 Z"/>
    <rect width="16" height="4" x="11.25" y="18.25" fill="#000" rx="2"/>
    <rect width="4" height="22" x="17.25" y="11.25" fill="#000" rx="2"/>
    <rect width="14" height="2.5" x="4.75" y="44.5" fill="#000" rx="1.25"/>
  </g>
</svg>
