<svg height="24" viewBox="0 0 24 24" width="24" xmlns="http://www.w3.org/2000/svg"><path d="m3 5.5c0-1.38071187 1.11928813-2.5 2.5-2.5h6c.1326082 0 .2597852.05267842.3535534.14644661l8.3029437 8.30294369c1.1325205 1.1325205 1.1325205 2.9686989 0 4.1012194l-4.6058874 4.6058874c-1.1325205 1.1325205-2.9686989 1.1325205-4.1012194 0l-8.30294369-8.3029437c-.09376819-.0937682-.14644661-.2209452-.14644661-.3535534zm8.2928932-1.5h-5.7928932c-.82842712 0-1.5.67157288-1.5 1.5v5.7928932l8.1564971 8.1564971c.7419962.7419962 1.9450096.7419962 2.6870058 0l4.6058874-4.6058874c.7419962-.7419962.7419962-1.9450096 0-2.6870058zm-3.2928932 3c-.55228475 0-1 .44771525-1 1s.44771525 1 1 1 1-.44771525 1-1-.44771525-1-1-1zm0-1c1.1045695 0 2 .8954305 2 2s-.8954305 2-2 2-2-.8954305-2-2 .8954305-2 2-2z"/></svg>