<svg xmlns="http://www.w3.org/2000/svg" width="52" height="53" viewBox="0 0 52 53">
  <g fill="none" fill-rule="evenodd" transform="translate(.75 .945)">
    <polygon fill="#FFF" points="16.25 9.055 33.75 1.055 34.25 22.055 49.25 30.555 48.75 50.055 1.75 50.055 1.75 30.055 15.75 22.055"/>
    <path fill="#000" fill-rule="nonzero" d="M30.8291237,0.327793764 C32.4434219,-0.456934546 34.3882172,0.215564754 35.1729455,1.82986299 C35.3881679,2.27260618 35.5,2.75845664 35.5,3.25073929 L35.5,3.25073929 L35.5,21.032 L45.9395122,26.2519465 C48.6471376,27.6057592 50.3886497,30.3289844 50.49485,33.3388364 L50.5,33.6309708 L50.5,47.3047329 C50.5,49.5829075 48.707493,51.4424196 46.4559163,51.549832 L46.25,51.5547329 L4.25,51.5547329 C1.97182541,51.5547329 0.112313259,49.7622259 0.00490093099,47.5106492 L0,47.3047329 L0,33.6309708 C0,30.6037535 1.65689877,27.8282344 4.30149799,26.3871992 L4.56048784,26.2519465 L15,21.032 L15,11.9336378 C15,9.62658387 16.2699921,7.51473766 18.290036,6.42896532 L18.5175456,6.31258868 Z M15,23.827 L5.67852183,28.4880145 C3.80266211,29.4259443 2.59213338,31.3069441 2.50503778,33.389789 L2.5,33.6309708 L2.5,47.3047329 C2.5,48.2229063 3.20711027,48.9759252 4.10647279,49.0489317 L4.25,49.0547329 L7.75,49.054 L7.75,35.5547329 C7.75,34.864377 8.30964406,34.3047329 9,34.3047329 C9.69035594,34.3047329 10.25,34.864377 10.25,35.5547329 L10.25,49.054 L15,49.054 L15,23.827 Z M32.9245259,2.92284476 C32.7434347,2.5503144 32.2946358,2.39512225 31.9221055,2.5762134 L31.9221055,2.5762134 L19.6105273,8.56100832 C18.3194846,9.18859854 17.5,10.4981376 17.5,11.9336378 L17.5,11.9336378 L17.5,49.0547329 L22,49.0547329 L22,49.0547329 L22,39.5547329 C22,37.7598075 23.4550746,36.3047329 25.25,36.3047329 C27.0449254,36.3047329 28.5,37.7598075 28.5,39.5547329 L28.5,49.0547329 L33,49.0547329 L33,3.25073929 C33,3.1750035 32.98853,3.09992742 32.9661673,3.02801875 L32.9661673,3.02801875 Z M35.5,23.827 L35.5,49.054 L40.25,49.054 L40.25,35.5547329 C40.25,34.864377 40.8096441,34.3047329 41.5,34.3047329 C42.1903559,34.3047329 42.75,34.864377 42.75,35.5547329 L42.75,49.054 L46.25,49.0547329 C47.1681734,49.0547329 47.9211923,48.3476226 47.9941988,47.4482601 L48,47.3047329 L48,33.6309708 C48,31.5336959 46.8589475,29.6097574 45.0349448,28.6003802 L44.8214782,28.4880145 L35.5,23.827 Z M25.25,12.3047329 C25.9403559,12.3047329 26.5,12.864377 26.5,13.5547329 L26.5,17.304 L29,17.3047329 C29.6903559,17.3047329 30.25,17.864377 30.25,18.5547329 C30.25,19.2450888 29.6903559,19.8047329 29,19.8047329 L26.5,19.804 L26.5,27.0547329 C26.5,27.7450888 25.9403559,28.3047329 25.25,28.3047329 C24.5596441,28.3047329 24,27.7450888 24,27.0547329 L24,19.804 L21.5,19.8047329 C20.8096441,19.8047329 20.25,19.2450888 20.25,18.5547329 C20.25,17.864377 20.8096441,17.3047329 21.5,17.3047329 L24,17.304 L24,13.5547329 C24,12.864377 24.5596441,12.3047329 25.25,12.3047329 Z"/>
  </g>
</svg>
