<svg id="visual" viewBox="0 0 900 600" width="900" height="600" xmlns="http://www.w3.org/2000/svg" xmlns:xlink="http://www.w3.org/1999/xlink" version="1.1"><rect x="0" y="0" width="900" height="600" fill="#001220"></rect><path d="M0 502L18.8 493.8C37.7 485.7 75.3 469.3 112.8 465.3C150.3 461.3 187.7 469.7 225.2 469.3C262.7 469 300.3 460 337.8 448.7C375.3 437.3 412.7 423.7 450.2 426.7C487.7 429.7 525.3 449.3 562.8 450.3C600.3 451.3 637.7 433.7 675.2 424.5C712.7 415.3 750.3 414.7 787.8 419.8C825.3 425 862.7 436 881.3 441.5L900 447L900 601L881.3 601C862.7 601 825.3 601 787.8 601C750.3 601 712.7 601 675.2 601C637.7 601 600.3 601 562.8 601C525.3 601 487.7 601 450.2 601C412.7 601 375.3 601 337.8 601C300.3 601 262.7 601 225.2 601C187.7 601 150.3 601 112.8 601C75.3 601 37.7 601 18.8 601L0 601Z" fill="#fa7268"></path><path d="M0 466L18.8 467C37.7 468 75.3 470 112.8 465.8C150.3 461.7 187.7 451.3 225.2 449C262.7 446.7 300.3 452.3 337.8 465.2C375.3 478 412.7 498 450.2 502.2C487.7 506.3 525.3 494.7 562.8 494.2C600.3 493.7 637.7 504.3 675.2 499.5C712.7 494.7 750.3 474.3 787.8 465.2C825.3 456 862.7 458 881.3 459L900 460L900 601L881.3 601C862.7 601 825.3 601 787.8 601C750.3 601 712.7 601 675.2 601C637.7 601 600.3 601 562.8 601C525.3 601 487.7 601 450.2 601C412.7 601 375.3 601 337.8 601C300.3 601 262.7 601 225.2 601C187.7 601 150.3 601 112.8 601C75.3 601 37.7 601 18.8 601L0 601Z" fill="#fc6765"></path><path d="M0 515L18.8 506.5C37.7 498 75.3 481 112.8 480.3C150.3 479.7 187.7 495.3 225.2 494.7C262.7 494 300.3 477 337.8 468.3C375.3 459.7 412.7 459.3 450.2 470.3C487.7 481.3 525.3 503.7 562.8 503.8C600.3 504 637.7 482 675.2 473C712.7 464 750.3 468 787.8 475.3C825.3 482.7 862.7 493.3 881.3 498.7L900 504L900 601L881.3 601C862.7 601 825.3 601 787.8 601C750.3 601 712.7 601 675.2 601C637.7 601 600.3 601 562.8 601C525.3 601 487.7 601 450.2 601C412.7 601 375.3 601 337.8 601C300.3 601 262.7 601 225.2 601C187.7 601 150.3 601 112.8 601C75.3 601 37.7 601 18.8 601L0 601Z" fill="#fd5b64"></path><path d="M0 507L18.8 506.7C37.7 506.3 75.3 505.7 112.8 503C150.3 500.3 187.7 495.7 225.2 495.8C262.7 496 300.3 501 337.8 509C375.3 517 412.7 528 450.2 534.2C487.7 540.3 525.3 541.7 562.8 538.3C600.3 535 637.7 527 675.2 527.3C712.7 527.7 750.3 536.3 787.8 535.8C825.3 535.3 862.7 525.7 881.3 520.8L900 516L900 601L881.3 601C862.7 601 825.3 601 787.8 601C750.3 601 712.7 601 675.2 601C637.7 601 600.3 601 562.8 601C525.3 601 487.7 601 450.2 601C412.7 601 375.3 601 337.8 601C300.3 601 262.7 601 225.2 601C187.7 601 150.3 601 112.8 601C75.3 601 37.7 601 18.8 601L0 601Z" fill="#fe4e63"></path><path d="M0 512L18.8 519.3C37.7 526.7 75.3 541.3 112.8 544C150.3 546.7 187.7 537.3 225.2 535.7C262.7 534 300.3 540 337.8 537.8C375.3 535.7 412.7 525.3 450.2 527.5C487.7 529.7 525.3 544.3 562.8 544.2C600.3 544 637.7 529 675.2 522C712.7 515 750.3 516 787.8 515.7C825.3 515.3 862.7 513.7 881.3 512.8L900 512L900 601L881.3 601C862.7 601 825.3 601 787.8 601C750.3 601 712.7 601 675.2 601C637.7 601 600.3 601 562.8 601C525.3 601 487.7 601 450.2 601C412.7 601 375.3 601 337.8 601C300.3 601 262.7 601 225.2 601C187.7 601 150.3 601 112.8 601C75.3 601 37.7 601 18.8 601L0 601Z" fill="#ff3f63"></path><path d="M0 561L18.8 557.5C37.7 554 75.3 547 112.8 548C150.3 549 187.7 558 225.2 562.5C262.7 567 300.3 567 337.8 563.5C375.3 560 412.7 553 450.2 552C487.7 551 525.3 556 562.8 554C600.3 552 637.7 543 675.2 543.5C712.7 544 750.3 554 787.8 558.2C825.3 562.3 862.7 560.7 881.3 559.8L900 559L900 601L881.3 601C862.7 601 825.3 601 787.8 601C750.3 601 712.7 601 675.2 601C637.7 601 600.3 601 562.8 601C525.3 601 487.7 601 450.2 601C412.7 601 375.3 601 337.8 601C300.3 601 262.7 601 225.2 601C187.7 601 150.3 601 112.8 601C75.3 601 37.7 601 18.8 601L0 601Z" fill="#ff2a64"></path><path d="M0 583L18.8 579.5C37.7 576 75.3 569 112.8 568.3C150.3 567.7 187.7 573.3 225.2 573.5C262.7 573.7 300.3 568.3 337.8 565.7C375.3 563 412.7 563 450.2 563C487.7 563 525.3 563 562.8 564.3C600.3 565.7 637.7 568.3 675.2 571.2C712.7 574 750.3 577 787.8 576.7C825.3 576.3 862.7 572.7 881.3 570.8L900 569L900 601L881.3 601C862.7 601 825.3 601 787.8 601C750.3 601 712.7 601 675.2 601C637.7 601 600.3 601 562.8 601C525.3 601 487.7 601 450.2 601C412.7 601 375.3 601 337.8 601C300.3 601 262.7 601 225.2 601C187.7 601 150.3 601 112.8 601C75.3 601 37.7 601 18.8 601L0 601Z" fill="#ff0066"></path></svg>