<svg id="visual" viewBox="0 0 900 900" width="900" height="900" xmlns="http://www.w3.org/2000/svg" xmlns:xlink="http://www.w3.org/1999/xlink" version="1.1"><rect x="0" y="0" width="900" height="900" fill="#001220"></rect><path d="M0 744L18.8 735.8C37.7 727.7 75.3 711.3 112.8 713.7C150.3 716 187.7 737 225.2 737C262.7 737 300.3 716 337.8 715.2C375.3 714.3 412.7 733.7 450.2 739.7C487.7 745.7 525.3 738.3 562.8 726.8C600.3 715.3 637.7 699.7 675.2 702.7C712.7 705.7 750.3 727.3 787.8 733.3C825.3 739.3 862.7 729.7 881.3 724.8L900 720L900 901L881.3 901C862.7 901 825.3 901 787.8 901C750.3 901 712.7 901 675.2 901C637.7 901 600.3 901 562.8 901C525.3 901 487.7 901 450.2 901C412.7 901 375.3 901 337.8 901C300.3 901 262.7 901 225.2 901C187.7 901 150.3 901 112.8 901C75.3 901 37.7 901 18.8 901L0 901Z" fill="#ff0066"></path><path d="M0 797L18.8 788C37.7 779 75.3 761 112.8 762.5C150.3 764 187.7 785 225.2 783.5C262.7 782 300.3 758 337.8 755.3C375.3 752.7 412.7 771.3 450.2 770C487.7 768.7 525.3 747.3 562.8 739.8C600.3 732.3 637.7 738.7 675.2 739.3C712.7 740 750.3 735 787.8 736.7C825.3 738.3 862.7 746.7 881.3 750.8L900 755L900 901L881.3 901C862.7 901 825.3 901 787.8 901C750.3 901 712.7 901 675.2 901C637.7 901 600.3 901 562.8 901C525.3 901 487.7 901 450.2 901C412.7 901 375.3 901 337.8 901C300.3 901 262.7 901 225.2 901C187.7 901 150.3 901 112.8 901C75.3 901 37.7 901 18.8 901L0 901Z" fill="#ff2f64"></path><path d="M0 789L18.8 791.2C37.7 793.3 75.3 797.7 112.8 799.5C150.3 801.3 187.7 800.7 225.2 803.5C262.7 806.3 300.3 812.7 337.8 807.7C375.3 802.7 412.7 786.3 450.2 783.5C487.7 780.7 525.3 791.3 562.8 790C600.3 788.7 637.7 775.3 675.2 772.8C712.7 770.3 750.3 778.7 787.8 777C825.3 775.3 862.7 763.7 881.3 757.8L900 752L900 901L881.3 901C862.7 901 825.3 901 787.8 901C750.3 901 712.7 901 675.2 901C637.7 901 600.3 901 562.8 901C525.3 901 487.7 901 450.2 901C412.7 901 375.3 901 337.8 901C300.3 901 262.7 901 225.2 901C187.7 901 150.3 901 112.8 901C75.3 901 37.7 901 18.8 901L0 901Z" fill="#fe4563"></path><path d="M0 834L18.8 828C37.7 822 75.3 810 112.8 810.2C150.3 810.3 187.7 822.7 225.2 822.3C262.7 822 300.3 809 337.8 802.7C375.3 796.3 412.7 796.7 450.2 797.5C487.7 798.3 525.3 799.7 562.8 804.2C600.3 808.7 637.7 816.3 675.2 822.2C712.7 828 750.3 832 787.8 830.7C825.3 829.3 862.7 822.7 881.3 819.3L900 816L900 901L881.3 901C862.7 901 825.3 901 787.8 901C750.3 901 712.7 901 675.2 901C637.7 901 600.3 901 562.8 901C525.3 901 487.7 901 450.2 901C412.7 901 375.3 901 337.8 901C300.3 901 262.7 901 225.2 901C187.7 901 150.3 901 112.8 901C75.3 901 37.7 901 18.8 901L0 901Z" fill="#fd5663"></path><path d="M0 829L18.8 834.2C37.7 839.3 75.3 849.7 112.8 848.3C150.3 847 187.7 834 225.2 829.2C262.7 824.3 300.3 827.7 337.8 827C375.3 826.3 412.7 821.7 450.2 819.3C487.7 817 525.3 817 562.8 822.8C600.3 828.7 637.7 840.3 675.2 842.7C712.7 845 750.3 838 787.8 833.2C825.3 828.3 862.7 825.7 881.3 824.3L900 823L900 901L881.3 901C862.7 901 825.3 901 787.8 901C750.3 901 712.7 901 675.2 901C637.7 901 600.3 901 562.8 901C525.3 901 487.7 901 450.2 901C412.7 901 375.3 901 337.8 901C300.3 901 262.7 901 225.2 901C187.7 901 150.3 901 112.8 901C75.3 901 37.7 901 18.8 901L0 901Z" fill="#fc6565"></path><path d="M0 855L18.8 853.3C37.7 851.7 75.3 848.3 112.8 846.8C150.3 845.3 187.7 845.7 225.2 849.5C262.7 853.3 300.3 860.7 337.8 866.3C375.3 872 412.7 876 450.2 874.3C487.7 872.7 525.3 865.3 562.8 862C600.3 858.7 637.7 859.3 675.2 858.2C712.7 857 750.3 854 787.8 851.5C825.3 849 862.7 847 881.3 846L900 845L900 901L881.3 901C862.7 901 825.3 901 787.8 901C750.3 901 712.7 901 675.2 901C637.7 901 600.3 901 562.8 901C525.3 901 487.7 901 450.2 901C412.7 901 375.3 901 337.8 901C300.3 901 262.7 901 225.2 901C187.7 901 150.3 901 112.8 901C75.3 901 37.7 901 18.8 901L0 901Z" fill="#fa7268"></path></svg>